# xmcd
#
# Track frame offsets:
#	150
#	12917
#	23784
#	41077
#	56446
#	69176
#	83944
#	94715
#	105469
#	117955
#	135701
#	150269
#
# Disc length: 2207 seconds
#
# Revision: 1
# Processed by: cddbd v1.5.2PL0 Copyright (c) Steve Scherf et al.
# Submitted via: audiograbber 1.83.01
#
DISCID=8a089d0c
DTITLE=Kirby Knob Boys - Yesterday
DYEAR=2004
DGENRE=Bluegrass
TTITLE0=Yesterday
TTITLE1=Blackjack
TTITLE2=If I Said I Was Sorry
TTITLE3=In the Jailhouse Now
TTITLE4=What Will You Say
TTITLE5=Where Corn Don't Grow
TTITLE6=On the Run
TTITLE7=If I Were a Carpenter
TTITLE8=If It's Over
TTITLE9=Larry's Lament
TTITLE10=Child of the Bluegrass
TTITLE11=Model Church
EXTD=
EXTT0=
EXTT1=
EXTT2=
EXTT3=
EXTT4=
EXTT5=
EXTT6=
EXTT7=
EXTT8=
EXTT9=
EXTT10=
EXTT11=
PLAYORDER=
